<?xml version="1.0" encoding="utf-8"?>
<!-- Generator: Adobe Illustrator 22.1.0, SVG Export Plug-In . SVG Version: 6.00 Build 0)  -->
<svg version="1.1" id="Layer_1" xmlns="http://www.w3.org/2000/svg" xmlns:xlink="http://www.w3.org/1999/xlink" x="0px" y="0px"
	 viewBox="0 0 512 512" style="enable-background:new 0 0 512 512;" xml:space="preserve">
<style type="text/css">
	.st0{fill:#FFFFFF;}
	.st1{fill:#696867;}
	.st2{display:none;enable-background:new;}
	.st3{display:inline;fill:#696867;}
	.st4{enable-background:new;}
</style>
<g>
	<path class="st0" d="M256,505c-66.5,0-129-25.9-176.1-72.9C32.9,385,7,322.5,7,256c0-66.5,25.9-129,72.9-176.1
		C127,32.9,189.5,7,256,7c66.5,0,129,25.9,176.1,72.9c47,47,72.9,109.6,72.9,176.1c0,66.5-25.9,129-72.9,176.1
		C385,479.1,322.5,505,256,505z"/>
	<path class="st1" d="M256,11c33.1,0,65.2,6.5,95.4,19.3c29.2,12.3,55.4,30,77.9,52.5c22.5,22.5,40.2,48.7,52.5,77.9
		c12.8,30.2,19.3,62.3,19.3,95.4s-6.5,65.2-19.3,95.4c-12.3,29.2-30,55.4-52.5,77.9c-22.5,22.5-48.7,40.2-77.9,52.5
		C321.2,494.5,289.1,501,256,501s-65.2-6.5-95.4-19.3c-29.2-12.3-55.4-30-77.9-52.5c-22.5-22.5-40.2-48.7-52.5-77.9
		C17.5,321.2,11,289.1,11,256s6.5-65.2,19.3-95.4c12.3-29.2,30-55.4,52.5-77.9c22.5-22.5,48.7-40.2,77.9-52.5
		C190.8,17.5,222.9,11,256,11 M256,3C116.3,3,3,116.3,3,256s113.3,253,253,253s253-113.3,253-253S395.7,3,256,3L256,3z"/>
</g>
<g class="st2">
	<path class="st3" d="M98.1,381.9l0.3-249.3c0-1,0.1-2.3,0.3-3.8c0.2-1.5,1.1-4.3,2.6-8.3c1.5-4,3.5-7.6,6-10.6
		c2.5-3,6.7-5.8,12.4-8.4c5.7-2.5,12.5-3.9,20.2-4.1l240.5-0.6c0.8,0.2,1.9,0.4,3.3,0.6c1.4,0.2,3.9,1,7.4,2.5
		c3.6,1.4,6.8,3.3,9.7,5.5c2.9,2.2,5.6,5.6,8.1,10.1c2.5,4.5,4,9.8,4.4,15.8l0.6,248.5c0,0.6-0.1,1.6-0.3,3
		c-0.2,1.4-0.9,3.8-1.9,7.2c-1.1,3.4-2.6,6.5-4.5,9.4c-1.9,2.8-4.9,5.7-8.8,8.7c-4,2.9-8.6,5.1-14,6.4l-251.5,0.6
		c-0.8-0.2-1.9-0.4-3.3-0.6c-1.3-0.2-4-1-7.9-2.4c-3.9-1.4-7.4-3.2-10.4-5.4c-3-2.2-5.9-5.5-8.6-9.8
		C100,392.6,98.5,387.6,98.1,381.9z M104.4,381.6c0.4,5.5,2,10.2,4.7,14.1c2.7,3.9,6,6.7,9.8,8.4c3.8,1.6,6.8,2.8,8.9,3.5
		c2.1,0.7,3.9,1.1,5.3,1.3l250.5-0.6c4-1,7.6-2.7,10.8-5.1c3.2-2.4,5.6-4.7,7.1-6.9c1.5-2.2,2.8-4.7,3.8-7.4c1-2.7,1.6-4.7,1.8-6
		c0.2-1.2,0.3-2.3,0.3-3.3L407,131.3c-0.4-5.5-1.8-10.2-4.3-14.2c-2.4-4-5.4-6.9-8.9-8.7c-3.5-1.8-6.3-3.1-8.3-3.9
		c-2-0.8-3.8-1.3-5.5-1.5l-240.2,0.8c-6.3,0.2-11.8,1.2-16.6,3.1c-4.7,1.9-8.2,4-10.5,6.3c-2.2,2.4-4,5.1-5.3,8.3
		c-1.3,3.2-2.1,5.5-2.4,7c-0.3,1.5-0.5,2.9-0.5,4.1L104.4,381.6z M115.6,148.7c0-3.4,1-6,3.1-7.9c1.2-0.8,4.2-1.2,9-1.2
		c4.2,0,7.2,0.4,8.8,1.2c2.1,1.9,3.1,4.5,3.1,7.9c0,4.2-1,6.9-3.1,8.1c-1.2,0.8-4.2,1.2-8.8,1.2c-4.2,0-7.2-0.3-9-0.9
		C116.6,156,115.6,153.2,115.6,148.7z M115.6,180.7c0-3.4,1-6,3.1-7.9c1.2-0.8,4.2-1.2,9-1.2c4.2,0,7.2,0.4,8.8,1.2
		c2.1,1.9,3.1,4.5,3.1,7.9c0,4.2-1,6.9-3.1,7.9c-1.2,0.8-4.2,1.3-8.8,1.4c-4.2,0-7.2-0.4-9-1.1C116.6,187.9,115.6,185.2,115.6,180.7
		z M115.6,212.8c0-3.4,1-6,3.1-7.9c1.2-0.8,4.2-1.2,9-1.2c4.2,0,7.2,0.4,8.8,1.2c2.1,1.9,3.1,4.5,3.1,7.9c0,4.2-1,6.9-3.1,7.9
		c-1.2,0.8-4.2,1.2-8.8,1.2c-4.2,0-7.2-0.3-9-0.9C116.8,220,115.8,217.2,115.6,212.8z M115.9,244.9c0-3.4,0.9-6,2.8-7.9
		c1.4-0.8,4.4-1.2,9-1.2c4.2,0,7.3,0.4,9.1,1.2c1.9,1.9,2.8,4.5,2.8,7.9c0,4.2-0.9,6.9-2.8,7.9c-1.4,0.8-4.4,1.2-8.8,1.2
		c-4.2,0-7.3-0.3-9.3-0.9C116.8,252,115.9,249.3,115.9,244.9z M115.9,276.9c0-3.4,1-6,3.1-7.9c1.2-0.8,4.2-1.3,9-1.4
		c4.2,0.1,7.2,0.6,8.8,1.4c2.1,1.9,3.1,4.5,3.1,7.9c0,4.2-1,6.9-3.1,7.9c-1.2,0.8-4.2,1.2-8.8,1.2c-4.2,0-7.2-0.3-9-0.9
		C116.9,284.1,115.9,281.3,115.9,276.9z M115.9,309c0-3.4,1-6.1,3.1-8.1c1.2-0.8,4.2-1.2,9-1.2c4.2,0,7.2,0.4,8.8,1.2
		c2.1,1.9,3.1,4.5,3.1,8.1c0,4.2-1,6.9-3.1,7.9c-1.2,0.8-4.2,1.2-8.8,1.2c-4.2,0-7.2-0.3-9-0.9C116.9,316.1,115.9,313.4,115.9,309z
		 M115.9,340.9c0-3.4,1-6,3.1-7.9c1.2-0.8,4.2-1.2,9-1.2c4.2,0,7.2,0.4,8.8,1.2c2.1,1.9,3.1,4.5,3.1,7.9c0,4.2-0.9,6.9-2.8,8.1
		c-1.4,0.8-4.5,1.2-9.1,1.2c-4.2,0-7.2-0.3-9-0.9C117.1,348.2,116.1,345.4,115.9,340.9z M116.2,372.9c0-3.4,0.9-6,2.8-7.9
		c1.4-0.8,4.4-1.2,9-1.2c4.2,0,7.3,0.4,9.1,1.2c1.9,1.9,2.8,4.5,2.8,7.9c0,4.2-0.9,6.9-2.8,8.1c-1.4,0.8-4.4,1.2-8.8,1.2
		c-4.2,0-7.3-0.3-9.3-0.9C117.1,380.2,116.2,377.5,116.2,372.9z M150.4,138.6c0,0-0.1-0.4-0.2-1.3c-0.1-0.9,0.1-2.5,0.6-5
		c0.5-2.4,1.4-4.5,2.7-6.3c1.3-1.8,3.5-3.4,6.5-5c3-1.6,6.9-2.5,11.5-2.7l172.2-0.6h0.3c1,0,2.1,0.2,3.3,0.5c1.2,0.3,2.7,1,4.6,2.2
		c1.9,1.1,3.5,3.1,4.6,5.9c1.2,2.8,1.9,6.3,2.1,10.5l0.3,96.3c-0.2,0-0.2,0.5,0,1.5c0.2,1,0,2.2-0.5,3.8c-0.6,1.5-1.2,3.1-1.8,4.6
		c-0.6,1.5-1.9,2.8-3.9,3.9c-2,1.1-4.4,1.9-7,2.2l-179.9,0.3c-0.2,0-0.6-0.1-1.2-0.2c-0.6-0.1-1.7-0.4-3.3-1c-1.6-0.6-3-1.3-4.3-2.1
		c-1.2-0.8-2.4-2.1-3.5-3.9c-1.1-1.8-1.7-3.9-1.9-6.4l-1.2-96.2C150.4,138.9,150.4,138.6,150.4,138.6z M150.5,282.1
		c-0.1-1,0.1-2.6,0.6-5c0.5-2.3,1.4-4.4,2.7-6.2c1.3-1.8,3.5-3.5,6.7-5.2c3.1-1.6,6.9-2.6,11.4-2.8l172.2-0.3c0.2,0,0.4,0,0.6,0
		c0.8,0,1.8,0.2,3,0.5c1.2,0.3,2.7,1,4.6,2c1.9,1,3.5,3,4.6,5.9c1.2,2.9,1.9,6.4,2.1,10.5l0.3,96.5c-0.2,0-0.2,0.5,0,1.5
		c0.2,1,0,2.2-0.5,3.6c-0.6,1.4-1.2,2.9-1.8,4.4c-0.6,1.5-1.9,2.9-3.8,4.1c-1.9,1.2-4.3,2-7.2,2.2l-179.9,0.5
		c-0.2,0-0.6-0.1-1.2-0.2c-0.6-0.2-1.7-0.5-3.3-1c-1.6-0.5-3-1.2-4.3-2c-1.2-0.8-2.4-2.1-3.5-3.9c-1.1-1.8-1.6-4-1.6-6.6l-1.5-96
		C150.7,283.9,150.6,283.1,150.5,282.1z M156.7,139.6l1.2,96.2c0.4,4.6,3.1,7.1,8.2,7.3l179.3-0.3c2.6-0.2,4.3-1,5.3-2.3
		c1.4-1.6,2.1-3.9,2-6.7v-0.3v-0.3l-0.3-96c-0.3-8.7-3.1-13-8.4-13h-0.3l-171.9,0.3c-6.1,0.4-10.4,2.1-13,5
		c-2.1,2.8-2.8,5.9-2.2,9.3v0.3V139.6z M157.1,284.2l1.5,96c0.2,4.9,2.8,7.4,7.9,7.7l179.6-0.3c2.4-0.2,4-1.1,5-2.6
		c1.4-1.7,2.1-3.8,2-6.3v-0.3V378l-0.3-96.5c-0.3-8.4-3-12.5-8.1-12.5h-0.3h-0.3l-171.9,0.3c-6.1,0.4-10.3,2.1-12.7,5
		c-2.1,2.4-2.9,5.5-2.5,9.3v0.3V284.2z M371.1,148.1c0-3.4,1.1-6,3.3-7.9c1.2-0.8,4.2-1.2,8.8-1.2c4.3,0,7.3,0.4,9,1.2
		c2.1,1.9,3.1,4.5,3.1,7.9c0,4.2-1,6.9-3.1,7.9c-1.2,0.8-4.2,1.3-9,1.4c-4.2,0-7.2-0.3-8.8-0.9C372.2,155.4,371.2,152.6,371.1,148.1
		z M371.1,180.1c0-3.4,1.1-6,3.3-7.9c1.2-0.8,4.2-1.2,8.8-1.2c4.3,0,7.3,0.4,9,1.2c2.1,1.9,3.1,4.5,3.1,7.9c0,4.2-1,6.9-3.1,7.9
		c-1.2,0.8-4.2,1.3-9,1.4c-4.2,0-7.2-0.4-8.8-1.1C372.2,187.3,371.2,184.6,371.1,180.1z M371.4,212.2c-0.2-3.4,0.8-6,2.9-7.9
		c1.2-0.8,4.2-1.2,8.8-1.2c4.3,0,7.3,0.4,9,1.2c2.1,1.9,3.1,4.5,3.1,7.9c0,4.2-0.9,6.9-2.8,7.9c-1.4,0.8-4.5,1.2-9.3,1.2
		c-4,0-7-0.3-8.8-0.9C372.4,219.4,371.5,216.6,371.4,212.2z M371.4,244.2c0-3.4,1-6,2.9-7.9c1.4-0.8,4.5-1.3,9.1-1.4
		c4.1,0.1,7.1,0.6,9,1.4c1.9,1.9,2.8,4.5,2.8,7.9c0,4.2-0.9,6.9-2.8,7.9c-1.4,0.8-4.4,1.2-9,1.2c-4.2,0-7.2-0.3-8.8-0.9
		C372.5,251.4,371.5,248.7,371.4,244.2z M371.4,276.3c0-3.4,1.1-6.1,3.3-8.1c1.2-0.8,4.2-1.2,8.8-1.2c4.3,0,7.3,0.4,9,1.2
		c2.1,1.9,3.1,4.5,3.1,8.1c0,4.2-1,6.9-3.1,7.9c-1.2,0.8-4.2,1.2-9,1.2c-4.2,0-7.2-0.3-8.8-0.9C372.5,283.5,371.5,280.7,371.4,276.3
		z M371.4,308.3c0-3.4,1.1-6.1,3.3-8.1c1.2-0.8,4.2-1.2,8.8-1.2c4.3,0,7.3,0.4,9,1.2c2.1,1.9,3.1,4.5,3.1,8.1c0,4.2-1,6.9-3.1,7.9
		c-1.2,0.8-4.2,1.2-9,1.2c-4.2,0-7.2-0.3-8.8-0.9C372.5,315.5,371.5,312.8,371.4,308.3z M371.8,340.2c0-3.4,0.9-6,2.8-7.9
		c1.4-0.8,4.4-1.2,8.8-1.2c4.3,0,7.3,0.4,9,1.2c2.1,1.9,3.1,4.5,3.1,7.9c0,4.2-0.9,6.9-2.8,8.1c-1.4,0.8-4.5,1.2-9.3,1.2
		c-4,0-7-0.3-8.8-0.9C372.8,347.6,371.8,344.8,371.8,340.2z M371.8,372.3c0-3.4,0.9-6,2.8-7.9c1.4-0.8,4.5-1.2,9.1-1.2
		c4.1,0,7.1,0.4,9,1.2c1.9,1.9,2.8,4.5,2.8,7.9c0.2,4.2-0.7,6.9-2.8,7.9c-1.4,0.8-4.4,1.3-9,1.4c-4.2,0-7.2-0.4-8.8-1.1
		C372.9,379.5,371.8,376.7,371.8,372.3z"/>
</g>
<g class="st2">
	<path class="st3" d="M58.5,318.9L319.9,59.3L353.4,92c-5.8,7.8-8.7,16.6-8.7,26.4c0,12.3,4.5,22.9,13.4,31.7
		c8.9,8.8,19.5,13.2,31.9,13.2c10.3,0,19.4-3,27.3-9l3.5,3.7l32.7,32.7L192.1,452.7l-37.7-37.9c1.3-4.2,1.9-8.5,1.9-12.7
		c0-12.6-4.4-23.3-13.2-32c-8.8-8.8-19.5-13.2-32.2-13.2c-4.2,0-8.4,0.6-12.5,1.9L58.5,318.9z M69.9,318.9l30.8,31.2
		c3.5-0.8,6.9-1.2,10.2-1.2c14.8,0,27.3,5.2,37.7,15.6s15.6,22.9,15.6,37.5c0,3.5-0.4,6.9-1.2,10.4l29.1,29.1l250-251l-25.6-26.2
		c-8.1,4.5-16.9,6.7-26.6,6.7c-14.8,0-27.3-5.2-37.6-15.6c-10.3-10.4-15.5-22.8-15.5-37.1c0-9,2.1-17.4,6.4-25.2l-23.3-22.9
		L69.9,318.9z M263.1,116.8l131.7,132l5.6-5.6l-131.7-132L263.1,116.8z"/>
</g>
<g class="st4">
	<path class="st1" d="M90.7,256.6c0-3.6,1.1-7.1,3.4-10.6c-2.2-3.8-3.3-7.5-3.4-11.1c0-0.7,0.1-1.3,0.3-2c0-1.3,0.3-2.7,0.8-4.1
		c0.4-1.5,1.2-3.1,2.3-4.9c1.1,2.2,2.5,4.2,4.4,6c-0.7,1.7-1,3.3-1.1,4.8c-0.1,1.5,0.3,3.1,1.1,4.8c0.9,2.2,2.1,4.3,3.6,6.4
		c5.3,6,13.8,11,25.5,15.1c11.7,4.1,25.1,6.2,40.2,6.2c15.1,0,28.6-2.1,40.4-6.2c11.8-4.1,20.2-9.2,25.3-15.1c1.5-2,2.8-4.1,3.7-6.4
		c0.7-1.7,1-3.3,1-4.8s-0.3-3.1-1-4.8c-0.4,0.4-1.1,1-2.1,1.6c0,0.2-0.1,0.4-0.3,0.5c-0.2,0.1-0.3,0.3-0.3,0.5
		c-0.9,0.7-1.8,1.4-2.9,2.3c-1.7,1.3-3.7,2.7-6,4.1h-0.3c-0.9,0.4-2.2,1.1-4.1,2c-1.1,0.7-2,1.1-2.6,1.3c-2,0.9-4.2,1.8-6.7,2.8
		c-0.4,0.2-1.2,0.4-2.3,0.7c-1.5,0.7-3.1,1.2-4.7,1.6c-1.1,0.2-2.1,0.4-3.1,0.7c-1.3,0.4-2.3,0.7-2.9,0.7c-1.7,0.4-3.5,0.9-5.4,1.3
		c-0.7,0-1.4,0.2-2.3,0.5c-2,0.2-3.9,0.4-5.7,0.7h-0.3h-0.3h-0.2c-0.1,0-0.2,0.1-0.2,0.3c-0.9,0-2.8,0.1-5.7,0.3c-0.2,0-0.6,0-1.1,0
		c-0.5,0-1,0.1-1.5,0.3h-4.4c-0.2,0-0.8,0-1.8,0c-1,0-1.7,0-2.1,0c-0.2,0-1.8,0-4.7,0c-0.2,0-0.8,0-1.7,0c-0.9,0-1.6,0-2,0
		c-2.5-0.2-5-0.4-7.7-0.7h-0.3h-0.3c-0.4-0.2-1.1-0.4-2-0.5l-1.3-0.2c-4.7-0.7-9.2-1.6-13.7-2.8H134c-0.1,0-0.3,0-0.5,0
		c-2-0.4-3.7-1-5.4-1.6c-0.7,0-1.8-0.3-3.4-1c-0.2,0-0.7-0.1-1.3-0.3c-0.7-0.2-1.2-0.4-1.6-0.7c-4.2-1.5-8.1-3.3-11.7-5.4
		c-2.2-1.3-4.2-2.7-6-4.1c-2-1.5-3.8-3.1-5.5-4.9c-1.7-1.7-3.2-3.7-4.4-6c-1.5-2.7-2.6-5.4-3.1-8c-0.2-1.1-0.3-2.1-0.3-3.1
		c0-3.8,1.1-7.4,3.4-10.9c1.1,2.2,2.5,4.1,4.4,5.9c-0.7,1.7-1,3.4-1.1,5c-0.1,1.6,0.3,3.3,1.1,5.1c0.9,2,2.1,4,3.6,6
		c2.2,2.5,4.8,4.8,8,7c2.2,1.5,4.5,2.8,7,3.9c14,6.8,30.9,10.3,50.7,10.3c19.8,0.1,36.7-3.4,50.7-10.3c2.5-1.1,4.8-2.4,7-3.9
		c3.4-2.2,6-4.5,8-7c1.5-2,2.8-4,3.7-6c0.7-2,1-3.6,1-5c0-1.5-0.3-3.2-1-5c-1.5,1.7-3.4,3.4-5.7,5c0,0.2-0.2,0.4-0.5,0.5
		c-0.3,0.1-0.5,0.3-0.5,0.5c-1.7,1.1-3.4,2.1-5,3.1c-2.5,1.3-5,2.5-7.7,3.6c-0.9,0.4-2,1-3.4,1.6h-0.3h-0.3
		c-0.2,0.2-1.1,0.6-2.6,1.1l-0.7,0.3c-0.4,0.2-0.8,0.3-1,0.3c-0.2,0-0.6,0.1-1.2,0.3c-0.6,0.2-1,0.3-1.2,0.3c-2.2,0.7-3.5,1-3.9,1
		c-2,0.7-4.2,1.2-6.7,1.6c-9.1,2-18.7,3-28.7,3c-10,0.1-19.6-0.9-28.7-3c-4.5-0.9-8.7-2-12.9-3.3c-6-2-11.3-4.3-16.1-7
		c-2.2-1.3-4.2-2.7-6-4.1c-2-1.5-3.8-3.2-5.5-5c-1.7-1.7-3.2-3.7-4.4-5.9c-1.1-1.7-1.8-3.5-2.3-5.4c-0.7-1.7-1-3.6-1.1-5.7
		c0-3.6,1.1-7.2,3.4-10.7c-1.1-1.7-1.8-3.4-2.3-4.9c-0.4-1.3-0.7-2.7-0.8-4.1c-0.2-0.7-0.3-1.3-0.3-2c0-3.8,1.1-7.5,3.4-11.1
		c-2.2-3.6-3.3-7.2-3.4-10.9c0-10.9,7.5-20.1,22.6-27.7c15-7.6,33.2-11.4,54.5-11.4s39.5,3.8,54.5,11.3c15,7.5,22.6,16.8,22.6,27.8
		c0,3.8-1,7.4-3.1,10.9c-1.3,2-2.8,4-4.6,6c-1.5,1.7-3.4,3.4-5.7,5c-1.7,1.3-3.7,2.6-6,3.9c-4.7,2.7-10,4.9-16,6.7
		c-4.2,1.5-8.6,2.8-13,3.7c-9.1,1.7-18.7,2.6-28.7,2.6c-10,0-19.6-0.9-28.7-2.6c-4.5-0.9-8.7-2.1-12.9-3.7c-6-1.7-11.3-4-16.1-6.7
		c-2.2-1.3-4.2-2.6-6-3.9c-2-1.5-3.8-3.2-5.5-5c-0.7,1.7-1,3.3-1.1,4.8c-0.1,1.5,0.3,3.1,1.1,5c0.9,2.2,2.1,4.2,3.6,6.2
		c2.2,2.2,4.8,4.4,8,6.7c2.5,1.5,4.8,2.9,7,4.1c6.4,3.4,13.7,5.9,22,7.7c9.1,2,18.7,3,28.7,3c10,0.1,19.6-0.9,28.7-3
		c8.2-1.7,15.6-4.3,22-7.7c2.5-1.1,4.8-2.4,7-4.1c3.4-2.2,6-4.4,8-6.7c1.5-2,2.8-4,3.7-6.2c0.7-1.7,1-3.3,1-4.8s-0.3-3.1-1-5
		c1.7-2,3.3-4,4.6-6c0.4,0.9,0.8,1.7,1.1,2.5c0.3,0.8,0.6,1.7,0.8,2.5c0.4,1.3,0.8,2.7,1.1,4.1c0,0.7,0,1.3,0,2s0,1.3,0,2
		c-0.2,1.3-0.6,2.7-1.1,4.1c-0.4,1.5-1.1,3.1-2,4.9c2,3.6,3,7.2,3.1,10.7c0,2-0.4,3.9-1.1,5.7c-0.4,1.7-1.1,3.5-2,5.4
		c-0.2,0.2-0.4,0.4-0.5,0.7c-0.1,0.2-0.3,0.4-0.5,0.7c0.2-0.2,0.4-0.4,0.5-0.7c0.1-0.2,0.3-0.4,0.5-0.7c2,3.6,3,7.2,3.1,10.9
		c0,0.9-0.1,1.9-0.3,3.1c-0.2,2.7-1.1,5.4-2.8,8c-0.2,0-0.7,0.5-1.3,1.6c0.7-1.1,1.1-1.6,1.3-1.6c0.9,1.7,1.5,3.4,2,4.9
		c0.4,1.3,0.8,2.7,1.1,4.1c0,0.7,0,1.3,0,2c0,3.6-1,7.3-3.1,11.1c2,3.6,3,7.1,3.1,10.6c0,6.6-3.1,12.9-9.4,18.7
		c-0.9,0.9-1.7,1.6-2.6,2.3c-0.2,0.2-0.4,0.4-0.5,0.6c-0.1,0.2-0.3,0.2-0.5,0.2c-0.9,0.7-1.6,1.2-2.1,1.6c-0.2,0.2-0.5,0.4-0.8,0.5
		l-0.5,0.2c-0.9,0.7-1.5,1.1-2,1.3c-0.2,0.2-0.7,0.5-1.3,1c-0.9,0.4-1.7,0.9-2.4,1.3c-0.2,0-0.7,0.1-1.3,0.3
		c-1.3,0.7-2.7,1.4-4.2,2.1l-0.2,0.2c-0.1,0.1-0.3,0.2-0.5,0.2c-1.5,0.7-3.3,1.3-5.4,2c-0.2,0-0.4,0.1-0.5,0.2
		c-0.1,0.1-0.3,0.2-0.5,0.2c-1.5,0.7-3.2,1.2-5,1.6l-1,0.3c-2,0.4-4.1,0.9-6.3,1.5l-0.3,0.3c-2,0.2-4.1,0.5-6.4,1h-0.3
		c-0.2,0-0.4,0.1-0.7,0.3c-4.5,0.7-9.1,1.1-14,1.3c-0.4,0-0.8,0-1,0c-2.7,0.2-5.2,0.3-7.3,0.3c-21.4,0-39.6-3.8-54.6-11.5
		C98.3,276.8,90.7,267.5,90.7,256.6z M90.7,342.7c0-0.7,0.1-1.3,0.3-2c0-1.3,0.3-2.7,0.8-4.1c0.4-1.5,1.1-3.2,2-5l0.3,0.3
		c1.1,2,2.5,3.9,4.4,5.7c-0.7,1.7-1,3.4-1.1,5c-0.1,1.6,0.3,3.3,1.1,5.1c0.9,2,2.1,3.9,3.6,5.9c5.3,6,13.8,11,25.5,15.1
		c11.7,4.1,25.1,6.2,40.2,6.2c15.1,0,28.5-2,40.2-6.1c11.7-4.1,20.2-9.1,25.5-15.2c1.5-2,2.8-3.9,3.7-5.9c0.7-1.7,1-3.4,1-5
		c0-1.6-0.3-3.3-1-5c-0.4,0.4-1.1,1.1-2.1,2l-0.3,0.3l-0.3,0.3c-0.9,0.9-1.8,1.7-2.9,2.4c-1.7,1.3-3.7,2.6-6,3.9h-0.3
		c-0.9,0.7-2.2,1.5-4.1,2.4c-1.1,0.4-2,0.8-2.6,1c-2,1.1-4.2,2.1-6.7,2.9c-0.4,0-1.2,0.2-2.3,0.7c-1.5,0.4-3.1,0.9-4.7,1.5
		c-1.1,0.4-2.1,0.8-3.1,1c-1.3,0.2-2.3,0.4-2.9,0.7c-1.7,0.2-3.5,0.5-5.4,1c-0.7,0-1.4,0.1-2.3,0.3c-2,0.2-3.9,0.4-5.7,0.7l-0.3,0.2
		l-0.3,0.2h-0.3c-0.9,0-2.8,0.1-5.7,0.3c-0.2,0-0.6,0.1-1.1,0.2c-0.5,0.1-1,0.2-1.5,0.2h-4.4c-0.2,0-0.8,0.1-1.8,0.2
		c-1,0.1-1.7,0.2-2.1,0.2c-0.2,0-1.8-0.1-4.7-0.3c-0.2,0-0.8,0-1.7,0c-0.9,0-1.6,0-2,0c-2.5-0.2-5-0.4-7.7-0.7h-0.3h-0.3
		c-0.4,0-1.1-0.1-2-0.3l-1.3-0.3c-4.7-0.7-9.2-1.4-13.7-2.3l-0.2-0.2c-0.1-0.1-0.3-0.2-0.5-0.2c-2-0.4-3.7-0.9-5.4-1.5
		c-0.7-0.2-1.8-0.7-3.4-1.3c-0.2,0-0.7-0.1-1.3-0.3c-0.7-0.2-1.2-0.4-1.6-0.7c-4.2-1.5-8.1-3.3-11.7-5.4c-2.2-1.3-4.2-2.6-6-3.9
		c-2-1.5-3.8-3.2-5.5-5c-1.7-1.7-3.2-3.6-4.4-5.7v-0.3c-1.5-2.7-2.6-5.4-3.1-8c-0.2-0.9-0.3-1.8-0.3-2.9c0-3.6,1.1-7.2,3.4-10.7
		c1.1,2,2.5,4,4.4,6c-0.7,1.7-1,3.3-1.1,4.8c-0.1,1.5,0.3,3.1,1.1,4.8c0.9,2,2.1,4,3.6,6c2.2,2.5,4.8,4.8,8,7c2.2,1.5,4.5,2.9,7,4.1
		c14,7.2,30.9,10.7,50.7,10.7c19.8-0.1,36.7-3.6,50.7-10.7c2.5-1.1,4.8-2.4,7-4.1c3.4-2.2,6-4.5,8-7c1.5-2,2.8-4,3.7-6
		c0.7-1.7,1-3.3,1-4.8c0-1.5-0.3-3.1-1-4.8c-1.5,1.5-3.4,3.1-5.7,4.7c0,0.2-0.2,0.4-0.5,0.7l-0.5,0.3c-1.7,1.1-3.4,2.1-5,2.9
		c-2.5,1.3-5,2.7-7.7,4.1c-0.9,0.2-2,0.7-3.4,1.3l-0.3,0.2l-0.3,0.2c-0.2,0-1.1,0.2-2.6,0.7c0,0.2-0.2,0.4-0.7,0.5
		c-0.4,0.1-0.8,0.2-1,0.2c-0.2,0.2-0.6,0.4-1.2,0.5c-0.6,0.1-1,0.2-1.2,0.2c-2.2,0.7-3.5,1.1-3.9,1.5c-2,0.4-4.2,0.9-6.7,1.3
		c-9.1,2-18.7,2.9-28.7,2.9c-10,0-19.6-1-28.7-2.9c-4.5-0.9-8.7-2-12.9-3.4c-6-2-11.3-4.3-16.1-7c-2.2-1.1-4.2-2.4-6-3.9
		c-2-1.5-3.8-3.1-5.5-4.7c-1.7-2-3.2-4-4.4-6c-1.1-1.7-1.8-3.6-2.3-5.7c-0.7-1.7-1-3.5-1.1-5.2c0-3.8,1.1-7.5,3.4-11.1
		c-1.1-1.7-1.8-3.4-2.3-5c-0.4-1.3-0.7-2.6-0.8-3.9c-0.2-0.7-0.3-1.4-0.3-2.1c0-3.8,1.1-7.4,3.4-10.9h-0.3c0.2,0,0.7,0.5,1.5,1.5
		c0.8,1,1.5,2,2.3,3.1l1.3,1.8l-0.3-0.3c-0.7,1.7-1,3.4-1.1,5c-0.1,1.6,0.3,3.2,1.1,5c0.9,2,2.1,4,3.6,6c2.2,2.5,4.8,4.8,8,7
		c2.2,1.5,4.5,2.9,7,4.1c6.4,3.2,13.7,5.6,22,7.3c9.1,2,18.7,2.9,28.7,2.9c10,0,19.6-1,28.7-2.9c8.2-1.7,15.6-4.2,22-7.3
		c2.5-1.1,4.8-2.4,7-4.1c3.4-2.2,6-4.5,8-7c1.5-2,2.8-4,3.7-6c0.7-1.7,1-3.4,1-5c0-1.6-0.3-3.2-1-5c0.4-0.4,1-1,1.6-1.8
		c0.7-1.1,1.4-2.2,2.3-3.3l0.7-1c0.4,1.1,0.8,2,1,2.6c0.4,0.9,0.8,1.6,1,2.3c0.4,1.3,0.8,2.7,1.1,4.1c0,0.7,0,1.3,0,2
		c0,0.7,0,1.4,0,2c-0.2,1.3-0.6,2.6-1.1,3.9c-0.4,1.5-1.1,3.2-2,5c2,3.6,3,7.3,3.1,11.1c0,1.7-0.4,3.5-1.1,5.2c-0.4,2-1.1,3.9-2,5.7
		c-0.2,0-0.4,0.2-0.7,0.5l-0.3,0.5l0.3-0.5c0.2-0.3,0.4-0.5,0.7-0.5c2,3.6,3,7.2,3.1,10.7c0,1.1-0.1,2.1-0.3,2.9
		c-0.4,2.7-1.4,5.4-2.8,8c-0.2,0.2-0.7,0.8-1.3,1.6c0.7-0.9,1.1-1.4,1.3-1.6c0.9,1.7,1.5,3.4,2,5c0.4,1.3,0.8,2.7,1.1,4.1
		c0,0.7,0,1.3,0,2c0,3.8-1,7.4-3.1,10.9c2,3.6,3,7.3,3.1,11.1c0,6.6-3.1,12.9-9.4,18.7c-0.9,0.7-1.7,1.4-2.6,2.3
		c-0.2,0-0.4,0.1-0.5,0.2c-0.1,0.1-0.3,0.3-0.5,0.5c-0.9,0.7-1.6,1.1-2.1,1.3c-0.2,0.2-0.5,0.4-0.8,0.7l-0.5,0.3
		c-0.9,0.4-1.5,0.9-2,1.5c-0.2,0-0.7,0.2-1.3,0.7c-0.9,0.4-1.7,0.9-2.4,1.3c-0.2,0-0.7,0.2-1.3,0.7c-1.3,0.7-2.7,1.3-4.2,2h-0.2
		c-0.1,0-0.3,0-0.5,0c-1.5,0.9-3.3,1.7-5.4,2.4c-0.2,0-0.4,0-0.7,0l-0.3,0.3c-1.5,0.4-3.2,0.9-5,1.3l-1,0.3c-2,0.7-4.1,1.2-6.3,1.6
		h-0.3c-2,0.4-4.1,0.8-6.4,1l-0.3,0.2c-0.2,0.1-0.4,0.2-0.7,0.2c-4.5,0.7-9.1,1.1-14,1.5c-0.4,0-0.8,0-1,0c-2.7,0.2-5.2,0.3-7.3,0.3
		c-21.4,0-39.6-3.9-54.6-11.6c-15-7.7-22.6-16.9-22.6-27.5c0-3.8,1.1-7.5,3.4-11.1C92,350,90.8,346.4,90.7,342.7z M97.4,147.3
		c0,2.5,0.8,5,2.4,7.7l1.3,2.3l2.3,2.3c1.3,1.5,2.9,3,4.7,4.4c1.5,1.1,3.3,2.2,5.4,3.4c4.4,2.5,9.3,4.6,14.7,6.2
		c4,1.3,8.1,2.4,12.4,3.4c8.7,1.7,17.8,2.6,27.4,2.6c9.6,0,18.6-0.9,27.2-2.6c4.2-0.9,8.4-2,12.4-3.4c5.5-1.7,10.4-3.8,14.7-6.2
		c2-1.1,3.7-2.2,5.4-3.4c1.7-1.3,3.3-2.8,4.7-4.4c1.5-1.5,2.7-3,3.6-4.6c1.5-2.7,2.3-5.3,2.4-7.7c0-8-6.3-15.2-19-21.7
		c-14-7.2-31.1-10.7-51.3-10.7c-19.8,0-36.4,3.3-50.1,10C104.2,131.6,97.4,139.1,97.4,147.3z M97.4,191c0,1.3,0.2,2.6,0.7,3.8
		c0.5,1.2,1.1,2.5,1.7,3.8c0.9,1.7,2.1,3.4,3.6,5c1.3,1.3,2.9,2.6,4.7,3.9c1.5,1.3,3.3,2.6,5.4,3.7c4,2.2,8.6,4.2,13.7,6h1.6l1,0.7
		c3.4,1.1,6.9,2.1,10.7,2.9c8.7,1.7,17.8,2.6,27.4,2.7c9.6,0.1,18.6-0.8,27.2-2.7c2.2-0.4,4.3-1,6.4-1.6c0.7-0.2,1.6-0.4,2.8-0.7
		l1-0.3c0.4-0.2,0.8-0.3,1-0.3c0.7-0.2,1.1-0.3,1.3-0.3c0.2-0.2,0.4-0.3,0.7-0.3l1-0.3l0.8-0.3c0.7-0.2,1.2-0.3,1.6-0.3l0.7-0.3
		c1.1-0.4,2.1-0.9,2.9-1.5c2.5-1.1,4.8-2.2,7-3.3c1.3-0.9,2.8-1.9,4.4-3.1l0.7-0.3l0.3-0.3c1.7-1.3,3.3-2.6,4.7-3.9l3.6-3.7
		l-0.7-0.3c0.2-0.2,0.4-0.4,0.7-0.7v-0.3c0.9-1.3,1.5-2.5,1.8-3.6c0.4-1.3,0.7-2.7,0.7-4.1c0-1.5-0.3-3.2-1-5
		c-2.2,2.2-4.9,4.4-8.1,6.7c-2.5,1.5-5,3-7.7,4.4c-6.8,3.6-14.7,6.3-23.6,8.3c-9.6,2-19.6,2.9-30,2.9c-10.5,0-20.5-1-30-2.9
		c-8.9-2-16.8-4.7-23.6-8.3c-2.7-1.1-5.3-2.5-7.7-4.4c-3.1-2.3-5.8-4.5-8-6.7C97.9,187.6,97.5,189.3,97.4,191z M97.4,256.6
		c0,8.2,6.8,15.8,20.4,22.6c13.6,6.8,30.3,10.2,50.1,10.2c2.2,0,4.5-0.1,7-0.3h1c4.7-0.2,9.1-0.7,13.4-1.3h0.7l0.3-0.3
		c2-0.2,4-0.5,6-1h0.3c2-0.4,4-1,6-1.8h0.3h0.3c1.7-0.4,3.4-1,4.9-1.6h0.3l0.3-0.3c1.7-0.4,3.5-1,5.4-1.6v-0.3h0.3
		c1.3-0.7,2.8-1.3,4.4-2h0.3l0.7-0.3c0.4-0.4,1.1-0.9,2-1.5h0.3c0.4-0.2,0.7-0.4,0.7-0.7c0.7-0.2,1.4-0.5,2.1-1l0.7-0.3l0.3-0.3
		c0.7-0.4,1.3-1,2-1.6l0.3-0.3h0.3c0.9-0.7,1.7-1.4,2.4-2.1c4.9-4.5,7.3-9.1,7.3-14c0-1.5-0.3-3.1-1-4.9
		c-6.4,6.8-15.8,12.3-28.3,16.3c-12.5,4-26.1,6-40.9,6c-14.8,0-28.5-2-41-6c-12.5-4-22-9.4-28.4-16.3
		C97.9,253.4,97.5,255.1,97.4,256.6z M97.4,299.1c0,1.1,0.2,2.3,0.7,3.6c0.5,1.3,1.1,2.7,1.7,4.1c0.9,1.5,2.1,3,3.6,4.6
		c1.3,1.3,2.9,2.7,4.7,4.1c1.5,1.3,3.3,2.5,5.4,3.6c4,2.2,8.6,4.2,13.7,6h1.6l1,1c3.4,0.9,6.9,1.8,10.7,2.8
		c8.7,1.7,17.8,2.6,27.4,2.6c9.6,0,18.6-0.9,27.2-2.6c2.2-0.4,4.3-1,6.4-1.6c0.7,0,1.6-0.3,2.8-0.8l1-0.3c0.4,0,0.8-0.1,1-0.3
		c0.7-0.2,1.1-0.3,1.3-0.3c0.2,0,0.4-0.1,0.7-0.3l1-0.3h0.8c0.7-0.2,1.2-0.4,1.6-0.7l0.7-0.3c1.1-0.4,2.1-0.9,2.9-1.3
		c2.5-1.1,4.8-2.2,7-3.4c1.3-0.9,2.8-1.7,4.4-2.6l0.7-0.7c0.2,0,0.3-0.1,0.3-0.3c1.7-1.3,3.3-2.7,4.7-4.1l3.6-3.6l-0.7-0.3
		c0.2-0.2,0.4-0.4,0.7-0.7v-0.3c0.9-1.1,1.5-2.3,1.8-3.7c0.4-1.3,0.7-2.5,0.7-3.6c0-1.7-0.3-3.5-1-5.4c-2.2,2.5-4.9,4.7-8.1,6.7
		c-2.5,1.7-5,3.3-7.7,4.6c-6.8,3.4-14.7,6.1-23.6,8.1c-9.6,2-19.6,2.9-30,2.9c-10.5,0-20.5-1-30-2.9c-8.9-2-16.8-4.7-23.6-8.1
		c-2.7-1.3-5.3-2.8-7.7-4.6c-3.1-2-5.8-4.2-8-6.7C97.9,295.4,97.5,297.2,97.4,299.1z M97.4,364.7c0,8,6.8,15.4,20.4,22.2
		c13.6,6.8,30.3,10.2,50.1,10.2c2.2,0,4.5-0.1,7-0.3h1c4.7-0.2,9.1-0.7,13.4-1.5h0.7h0.3c2-0.4,4-0.9,6-1.3h0.3c2-0.4,4-0.9,6-1.3
		l0.3-0.3h0.3c1.7-0.4,3.4-0.9,4.9-1.3l0.3-0.3h0.3c1.7-0.7,3.5-1.4,5.4-2.1l0.3-0.3c1.3-0.4,2.8-1,4.4-1.6l0.3-0.3l0.7-0.3
		c0.4-0.2,1.1-0.5,2-1l0.3-0.3c0.2-0.2,0.4-0.3,0.7-0.3c0.7-0.4,1.4-0.9,2.1-1.3l0.7-0.3l0.3-0.3c0.7-0.4,1.3-0.9,2-1.5l0.3-0.3
		l0.3-0.3c0.9-0.7,1.7-1.3,2.4-2c4.9-4.5,7.3-9,7.3-13.7c0-1.8-0.3-3.6-1-5.4c-6.4,6.8-15.8,12.3-28.3,16.3c-12.5,4-26.1,6-40.9,6
		c-14.8,0-28.5-2-41-5.9c-12.5-4-22-9.4-28.4-16.4C97.9,361,97.5,362.8,97.4,364.7z M267.2,342.7c0-0.7,0.1-1.3,0.3-2
		c0-1.3,0.2-2.7,0.7-4.1c0.4-1.5,1.2-3.2,2.3-5v0.3c1.1,2,2.5,3.9,4.4,5.7c-0.7,1.7-1,3.4-1,5c0,1.6,0.3,3.3,1,5.1
		c0.9,2,2.1,3.9,3.6,5.9c5.3,6,13.8,11,25.6,15.1c11.7,4.1,25.1,6.2,40.2,6.2c15.1,0,28.5-2,40.3-6.1c11.8-4.1,20.2-9.1,25.3-15.2
		c1.5-2,2.8-3.9,3.7-5.9c0.7-1.7,1-3.4,1-5c0-1.6-0.3-3.3-1-5c-0.4,0.4-1.1,1.1-2,2l-0.2,0.3c-0.1,0.2-0.3,0.3-0.5,0.3
		c-0.9,0.9-1.9,1.7-3.1,2.4c-1.7,1.3-3.7,2.6-6,3.9h-0.3c-0.9,0.7-2.2,1.5-3.9,2.4c-1.1,0.4-1.9,0.8-2.4,1c-2.2,1.1-4.5,2.1-7,2.9
		c-0.4,0-1.1,0.2-2,0.7c-1.5,0.4-3.2,0.9-5,1.5c-1.1,0.4-2.1,0.8-2.9,1c-1.3,0.2-2.3,0.4-3.1,0.7c-1.7,0.2-3.5,0.5-5.2,1
		c-0.7,0-1.5,0.1-2.4,0.3c-2,0.2-3.9,0.4-5.7,0.7l-0.3,0.2l-0.3,0.2h-0.3c-0.9,0-2.8,0.1-5.7,0.3c-0.2,0-0.6,0.1-1.1,0.2
		c-0.5,0.1-0.9,0.2-1.1,0.2c-0.2,0-1.8,0-4.7,0c-0.2,0-0.8,0.1-1.8,0.2c-1,0.1-1.7,0.2-2.1,0.2c-0.2,0-1.8-0.1-4.7-0.3
		c-0.2,0-0.8,0-1.6,0c-0.9,0-1.5,0-2,0c-2.5-0.2-5-0.4-7.7-0.7H328h-0.3c-0.4,0-1.1-0.1-1.9-0.3c-0.8-0.2-1.3-0.3-1.5-0.3
		c-4.7-0.7-9.2-1.4-13.7-2.3l-0.2-0.2c-0.1-0.1-0.3-0.2-0.5-0.2c-2-0.4-3.7-0.9-5.4-1.5c-0.7-0.2-1.7-0.7-3.3-1.3
		c-0.2,0-0.7-0.1-1.4-0.3c-0.7-0.2-1.2-0.4-1.4-0.7c-4.5-1.5-8.4-3.3-11.9-5.4c-2.2-1.3-4.2-2.6-6-3.9c-2-1.5-3.9-3.2-5.7-5
		c-1.7-1.7-3.2-3.6-4.4-5.7v-0.3c-1.5-2.7-2.5-5.4-2.9-8c-0.2-1.1-0.3-2.1-0.3-2.9c0-3.6,1.1-7.2,3.3-10.7c1.1,2,2.5,4,4.4,6
		c-0.7,1.7-1,3.3-1,4.8c0,1.5,0.3,3.1,1,4.8c0.9,2,2.1,4,3.6,6c2.2,2.5,4.9,4.8,8.1,7c2.5,1.5,4.8,2.9,7,4.1
		c14,7.2,30.9,10.7,50.8,10.7c19.9-0.1,36.7-3.6,50.5-10.7c2.5-1.1,4.8-2.4,7-4.1c3.4-2.2,6-4.5,8-7c1.5-2,2.8-4,3.7-6
		c0.7-1.7,1-3.3,1-4.8c0-1.5-0.3-3.1-1-4.8c-1.5,1.5-3.4,3.1-5.7,4.7c0,0.2-0.2,0.4-0.5,0.7l-0.5,0.3c-1.7,1.1-3.4,2.1-5,2.9
		c-2.5,1.3-5,2.7-7.7,4.1c-0.7,0.2-1.7,0.7-3.3,1.3l-0.3,0.2l-0.3,0.2c-0.2,0-1.1,0.2-2.8,0.7c0,0.2-0.2,0.4-0.7,0.5
		c-0.4,0.1-0.8,0.2-1,0.2c-0.2,0.2-0.6,0.4-1.1,0.5c-0.5,0.1-0.9,0.2-1.1,0.2c-2.2,0.7-3.5,1.1-4.1,1.5c-2,0.4-4.2,0.9-6.7,1.3
		c-9.1,2-18.7,2.9-28.7,2.9c-10,0-19.5-1-28.7-2.9c-4.5-0.9-8.8-2-13-3.4c-6-2-11.3-4.3-16-7c-2.2-1.1-4.2-2.4-6-3.9
		c-2-1.5-3.9-3.1-5.7-4.7c-1.7-2-3.2-4-4.4-6c-1.1-1.7-1.8-3.6-2.3-5.7c-0.7-1.7-1-3.5-1-5.2c0-3.8,1.1-7.5,3.3-11.1
		c-1.1-1.7-1.8-3.4-2.3-5c-0.4-1.3-0.7-2.6-0.7-3.9c-0.2-0.7-0.3-1.4-0.3-2.1c0-3.8,1.1-7.4,3.3-10.9c-2.2-3.6-3.3-7.3-3.3-11.1
		c0-10.6,7.5-19.8,22.6-27.4c15.1-7.7,33.3-11.5,54.5-11.5c21.3,0,39.4,3.8,54.4,11.5c15,7.7,22.5,16.8,22.5,27.4
		c0,3.8-1,7.5-2.9,11.1c-1.3,2.2-2.9,4.2-4.7,6c-1.5,1.7-3.4,3.4-5.7,4.9c-1.7,1.3-3.7,2.7-6,4.1c-4.7,2.7-10,5-16,7
		c-4,1.3-8.4,2.4-13,3.3c-9.1,1.7-18.6,2.6-28.5,2.7c-9.9,0.1-19.5-0.8-28.8-2.7c-4.5-0.9-8.8-2-13-3.3c-5.8-2-11.1-4.3-16-7
		c-2.2-1.3-4.2-2.7-6-4.1c-2-1.5-3.9-3.1-5.7-4.9c-0.7,1.7-1,3.4-1,5c0,1.6,0.3,3.2,1,5c0.9,2,2.2,4,4.1,6c2,2.5,4.5,4.8,7.7,7
		c2.5,1.5,4.8,2.9,7,4.1c6.4,3.2,13.7,5.6,22,7.3c9.1,2,18.7,2.9,28.7,2.9c10,0,19.5-1,28.7-2.9c8.5-1.7,15.8-4.2,22-7.3
		c2.5-1.1,4.8-2.4,7-4.1c3.4-2.2,6-4.5,8-7c1.5-2,2.8-4,3.7-6c0.7-1.7,1-3.4,1-5c0-1.6-0.3-3.2-1-5c1.7-1.7,3.3-3.7,4.7-6
		c0.4,0.9,0.8,1.7,1.1,2.4c0.3,0.8,0.6,1.6,0.8,2.4c0.4,1.3,0.8,2.7,1,4.1c0,0.7,0,1.3,0,2c0,0.7,0,1.4,0,2c-0.2,1.3-0.5,2.6-1,3.9
		c-0.4,1.5-1.1,3.2-2,5c2,3.6,2.9,7.3,2.9,11.1c0,1.7-0.2,3.5-0.7,5.2c-0.7,2-1.4,3.9-2.3,5.7c-0.2,0-0.4,0.2-0.6,0.5
		c-0.2,0.3-0.4,0.5-0.6,0.5c0.2,0,0.4-0.2,0.6-0.5c0.2-0.3,0.4-0.5,0.6-0.5c2,3.6,2.9,7.2,2.9,10.7c0,1.1-0.1,2.1-0.3,2.9
		c-0.2,2.7-1.1,5.4-2.6,8c-0.2,0.2-0.7,0.8-1.5,1.6c0.9-0.9,1.4-1.4,1.5-1.6c0.9,1.7,1.5,3.4,2,5c0.4,1.3,0.8,2.7,1,4.1
		c0,0.7,0,1.3,0,2c0,3.8-1,7.4-2.9,10.9c2,3.6,2.9,7.3,2.9,11.1c0,6.6-3.1,12.9-9.3,18.7c-0.7,0.7-1.6,1.4-2.8,2.3
		c-0.2,0-0.4,0.1-0.5,0.2c-0.1,0.1-0.3,0.3-0.5,0.5c-0.9,0.7-1.5,1.1-2,1.3c-0.2,0.2-0.4,0.4-0.7,0.7c-0.2,0.2-0.4,0.3-0.7,0.3
		c-0.9,0.4-1.6,0.9-2.1,1.5c-0.2,0-0.7,0.2-1.3,0.7c-0.9,0.4-1.6,0.9-2.3,1.3c-0.2,0-0.5,0.2-1,0.7c-1.5,0.7-3.1,1.3-4.7,2h-0.2
		c-0.1,0-0.3,0-0.5,0c-1.5,0.9-3.3,1.7-5.4,2.4h-0.7l-0.3,0.3c-1.5,0.4-3.2,0.9-5,1.3l-1,0.3c-2,0.7-4.1,1.2-6.3,1.6h-0.3
		c-2,0.4-4,0.8-6,1c-0.2,0-0.4,0.1-0.7,0.2l-0.3,0.2c-4.7,0.7-9.3,1.1-14,1.5c-0.7,0-1.1,0-1.3,0c-2.7,0.2-5.2,0.3-7.3,0.3
		c-21.2,0-39.3-3.9-54.4-11.6c-15.1-7.7-22.6-16.9-22.6-27.5c0-3.8,1.1-7.5,3.3-11.1C268.3,350,267.2,346.4,267.2,342.7z
		 M273.9,254.9c0,2.7,0.8,5.3,2.3,7.7l1.3,2.8l2.4,2.3c1.3,1.3,2.8,2.7,4.6,4.1c1.5,1.1,3.3,2.3,5.4,3.6c4.4,2.5,9.3,4.6,14.7,6.3
		c4,1.3,8.1,2.3,12.4,2.9c8.9,1.7,18.1,2.6,27.5,2.7c9.4,0.1,18.5-0.8,27.2-2.7c4.2-0.7,8.4-1.6,12.4-2.9c5.5-1.7,10.4-3.9,14.7-6.3
		c2-1.3,3.7-2.5,5.4-3.6c1.7-1.3,3.3-2.7,4.6-4.1c1.5-1.5,2.8-3.2,3.7-5c1.5-2.5,2.3-5,2.3-7.7c0-8-6.4-15.2-19.1-21.7
		c-14-7.1-31.1-10.6-51.3-10.6c-19.8,0-36.4,3.4-50,10.1C280.7,239.5,273.9,246.9,273.9,254.9z M273.9,299.1c0,1.1,0.2,2.3,0.7,3.6
		s1,2.7,1.6,4.1c0.9,1.5,2.1,3,3.7,4.6c1.3,1.3,2.8,2.7,4.6,4.1c1.5,1.3,3.3,2.5,5.4,3.6c4,2.2,8.7,4.2,14,6h1.3l1,1
		c3.4,0.9,6.9,1.8,10.7,2.8c8.9,1.7,18.1,2.6,27.5,2.6c9.4,0,18.5-0.9,27.2-2.6c2.2-0.4,4.3-1,6.4-1.6c0.7,0,1.6-0.3,2.9-0.8
		l0.7-0.3c0.4,0,0.8-0.1,1-0.3c0.7,0,1.1-0.1,1.5-0.3c0.2,0,0.5-0.1,1-0.3l0.7-0.3h0.7c0.7-0.2,1.2-0.4,1.6-0.7l0.7-0.3
		c1.3-0.4,2.3-0.9,3.1-1.3c2.7-1.1,5-2.2,7-3.4c1.3-0.9,2.7-1.7,4.2-2.6l0.7-0.7c0.2,0,0.4-0.1,0.5-0.3c1.7-1.3,3.4-2.7,4.9-4.1
		l3.4-3.6l-0.3-0.3c0-0.2,0.1-0.4,0.3-0.7v-0.3c0.9-1.1,1.4-2.3,1.6-3.7c0.4-1.3,0.7-2.5,0.7-3.6c0-1.7-0.3-3.5-1-5.4
		c-2.2,2.5-4.8,4.7-8,6.7c-2.5,1.7-5,3.3-7.7,4.6c-6.8,3.4-14.7,6.1-23.4,8.1c-9.6,2-19.6,2.9-30.1,2.9c-10.5,0-20.6-1-30.1-2.9
		c-8.9-2-16.8-4.7-23.8-8.1c-2.5-1.3-5-2.8-7.7-4.6c-3.2-2-5.8-4.2-8-6.7C274.2,295.4,273.9,297.2,273.9,299.1z M273.9,364.7
		c0,8,6.8,15.4,20.4,22.2c13.6,6.8,30.2,10.2,50,10.2c2.2,0,4.5-0.1,7-0.3h1c4.7-0.2,9.2-0.7,13.7-1.5h0.3h0.3c2-0.4,4-0.9,6-1.3
		h0.3c2-0.4,4-0.9,6-1.3l0.3-0.3h0.3c1.7-0.4,3.4-0.9,5-1.3l0.3-0.3h0.7c1.5-0.7,3.2-1.4,5-2.1l0.7-0.3c1.3-0.4,2.6-1,3.9-1.6
		l0.3-0.3l0.7-0.3c0.4-0.2,1.1-0.5,2.1-1l0.3-0.3c0.2-0.2,0.5-0.3,1-0.3c0.4-0.4,1-0.9,1.6-1.3l0.7-0.3l0.3-0.3
		c0.7-0.4,1.4-0.9,2.1-1.5l0.7-0.3v-0.3c0.9-0.7,1.6-1.3,2.3-2c4.9-4.5,7.3-9,7.3-13.7c0-1.8-0.3-3.6-1-5.4
		c-6.4,6.8-15.8,12.3-28.3,16.3c-12.5,4-26.1,6-40.9,6c-14.8,0-28.4-2-41-5.9c-12.6-4-22.1-9.4-28.5-16.4
		C274.2,361,273.9,362.8,273.9,364.7z"/>
</g>
</svg>
