<svg id="Layer_1" data-name="Layer 1" xmlns="http://www.w3.org/2000/svg" viewBox="0 0 506 506"><defs><style>.cls-1{fill:#fff;}.cls-2{fill:#696867;}</style></defs><path class="cls-1" d="M256,505A249,249,0,0,1,79.9,79.9,249,249,0,0,1,432.1,432.1,247.67,247.67,0,0,1,256,505Z" transform="translate(-3 -3)"/><path class="cls-2" d="M256,11A245.16,245.16,0,0,1,481.8,351.5,245.67,245.67,0,0,1,351.4,481.9,246.56,246.56,0,0,1,256,501,245.07,245.07,0,0,1,30.3,160.6,244.59,244.59,0,0,1,256,11m0-8C116.3,3,3,116.3,3,256S116.3,509,256,509,509,395.7,509,256,395.7,3,256,3Z" transform="translate(-3 -3)"/><path class="cls-2" d="M386.07,225.71a135.27,135.27,0,1,0-270.54-.34v.34a57.41,57.41,0,0,0-54.1,57.15v6.76a57.44,57.44,0,0,0,57.48,57.49h3l24,38.21a90.46,90.46,0,0,0,77.44,42.95h4.73a27.06,27.06,0,1,0,0-13.53h-4.73a77.15,77.15,0,0,1-65.94-36.86l-19.62-30.77h4.74a13.56,13.56,0,0,0,13.52-13.53V238.89a13.55,13.55,0,0,0-13.52-13.52H129.06a121.74,121.74,0,0,1,243.48,0H359a13.55,13.55,0,0,0-13.52,13.52v94.69A13.56,13.56,0,0,0,359,347.11h23.67a57.44,57.44,0,0,0,57.49-57.49v-6.76A57.41,57.41,0,0,0,386.07,225.71ZM254.18,408a13.53,13.53,0,1,1-13.53,13.52A13.56,13.56,0,0,1,254.18,408ZM142.59,238.89v94.69H118.91a43.88,43.88,0,0,1-44-44v-6.76a43.88,43.88,0,0,1,44-44Zm284,50.73a43.87,43.87,0,0,1-44,44H359V238.89h23.67a43.88,43.88,0,0,1,44,44Z" transform="translate(-3 -3)"/><path class="cls-2" d="M306.93,141.16a28.74,28.74,0,0,1-2.7-1.69c-1-.67-2-1.35-2.71-1.69a6.36,6.36,0,0,0-9.13,2.37c-1.69,3.38-1,7.1,2.37,9.13a31,31,0,0,1,2.71,1.69,13.39,13.39,0,0,0,3,1.69,6.49,6.49,0,0,0,3.38,1,6.28,6.28,0,0,0,5.75-3.39A6.82,6.82,0,0,0,306.93,141.16Z" transform="translate(-3 -3)"/><path class="cls-2" d="M250.8,123.92a98,98,0,0,0-74.4,34.15,6.87,6.87,0,0,0,.68,9.47,7.07,7.07,0,0,0,4.4,1.69,6.07,6.07,0,0,0,5.07-2.37,85.33,85.33,0,0,1,64.25-29.42,84.11,84.11,0,0,1,18.26,2,7.18,7.18,0,0,0,8.12-5.07c1-3.38-1.69-7.1-5.08-8.12A91.45,91.45,0,0,0,250.8,123.92Z" transform="translate(-3 -3)"/></svg>