<?xml version="1.0" encoding="utf-8"?>
<!-- Generator: Adobe Illustrator 22.1.0, SVG Export Plug-In . SVG Version: 6.00 Build 0)  -->
<svg version="1.1" id="Layer_1" xmlns="http://www.w3.org/2000/svg" xmlns:xlink="http://www.w3.org/1999/xlink" x="0px" y="0px"
	 viewBox="0 0 512 512" style="enable-background:new 0 0 512 512;" xml:space="preserve">
<style type="text/css">
	.st0{fill:#FFFFFF;}
	.st1{fill:#696867;}
	.st2{enable-background:new    ;}
	.st3{display:none;enable-background:new    ;}
	.st4{display:inline;fill:#696867;}
</style>
<g>
	<path class="st0" d="M256,505c-66.5,0-129-25.9-176.1-72.9C32.9,385,7,322.5,7,256c0-66.5,25.9-129,72.9-176.1
		C127,32.9,189.5,7,256,7c66.5,0,129,25.9,176.1,72.9c47,47,72.9,109.6,72.9,176.1c0,66.5-25.9,129-72.9,176.1
		C385,479.1,322.5,505,256,505z"/>
	<path class="st1" d="M256,11c33.1,0,65.2,6.5,95.4,19.3c29.2,12.3,55.4,30,77.9,52.5c22.5,22.5,40.2,48.7,52.5,77.9
		c12.8,30.2,19.3,62.3,19.3,95.4s-6.5,65.2-19.3,95.4c-12.3,29.2-30,55.4-52.5,77.9c-22.5,22.5-48.7,40.2-77.9,52.5
		C321.2,494.5,289.1,501,256,501s-65.2-6.5-95.4-19.3c-29.2-12.3-55.4-30-77.9-52.5c-22.5-22.5-40.2-48.7-52.5-77.9
		C17.5,321.2,11,289.1,11,256s6.5-65.2,19.3-95.4c12.3-29.2,30-55.4,52.5-77.9c22.5-22.5,48.7-40.2,77.9-52.5
		C190.8,17.5,222.9,11,256,11 M256,3C116.3,3,3,116.3,3,256s113.3,253,253,253s253-113.3,253-253S395.7,3,256,3L256,3z"/>
</g>
<g class="st2">
	<path class="st1" d="M98.1,381.9l0.3-249.3c0-1,0.1-2.3,0.3-3.8c0.2-1.5,1.1-4.3,2.6-8.3c1.5-4,3.5-7.6,6-10.6
		c2.5-3,6.7-5.8,12.4-8.4c5.7-2.5,12.5-3.9,20.2-4.1l240.5-0.6c0.8,0.2,1.9,0.4,3.3,0.6c1.4,0.2,3.9,1,7.4,2.5
		c3.6,1.4,6.8,3.3,9.7,5.5c2.9,2.2,5.6,5.6,8.1,10.1c2.5,4.5,4,9.8,4.4,15.8l0.6,248.5c0,0.6-0.1,1.6-0.3,3
		c-0.2,1.4-0.9,3.8-1.9,7.2c-1.1,3.4-2.6,6.5-4.5,9.4c-1.9,2.8-4.9,5.7-8.8,8.7c-4,2.9-8.6,5.1-14,6.4l-251.5,0.6
		c-0.8-0.2-1.9-0.4-3.3-0.6c-1.3-0.2-4-1-7.9-2.4c-3.9-1.4-7.4-3.2-10.4-5.4c-3-2.2-5.9-5.5-8.6-9.8
		C100,392.6,98.5,387.6,98.1,381.9z M104.4,381.6c0.4,5.5,2,10.2,4.7,14.1c2.7,3.9,6,6.7,9.8,8.4c3.8,1.6,6.8,2.8,8.9,3.5
		c2.1,0.7,3.9,1.1,5.3,1.3l250.5-0.6c4-1,7.6-2.7,10.8-5.1c3.2-2.4,5.6-4.7,7.1-6.9c1.5-2.2,2.8-4.7,3.8-7.4c1-2.7,1.6-4.7,1.8-6
		c0.2-1.2,0.3-2.3,0.3-3.3L407,131.3c-0.4-5.5-1.8-10.2-4.3-14.2c-2.4-4-5.4-6.9-8.9-8.7c-3.5-1.8-6.3-3.1-8.3-3.9
		c-2-0.8-3.8-1.3-5.5-1.5l-240.2,0.8c-6.3,0.2-11.8,1.2-16.6,3.1c-4.7,1.9-8.2,4-10.5,6.3c-2.2,2.4-4,5.1-5.3,8.3
		c-1.3,3.2-2.1,5.5-2.4,7c-0.3,1.5-0.5,2.9-0.5,4.1L104.4,381.6z M115.6,148.7c0-3.4,1-6,3.1-7.9c1.2-0.8,4.2-1.2,9-1.2
		c4.2,0,7.2,0.4,8.8,1.2c2.1,1.9,3.1,4.5,3.1,7.9c0,4.2-1,6.9-3.1,8.1c-1.2,0.8-4.2,1.2-8.8,1.2c-4.2,0-7.2-0.3-9-0.9
		C116.6,156,115.6,153.2,115.6,148.7z M115.6,180.7c0-3.4,1-6,3.1-7.9c1.2-0.8,4.2-1.2,9-1.2c4.2,0,7.2,0.4,8.8,1.2
		c2.1,1.9,3.1,4.5,3.1,7.9c0,4.2-1,6.9-3.1,7.9c-1.2,0.8-4.2,1.3-8.8,1.4c-4.2,0-7.2-0.4-9-1.1C116.6,187.9,115.6,185.2,115.6,180.7
		z M115.6,212.8c0-3.4,1-6,3.1-7.9c1.2-0.8,4.2-1.2,9-1.2c4.2,0,7.2,0.4,8.8,1.2c2.1,1.9,3.1,4.5,3.1,7.9c0,4.2-1,6.9-3.1,7.9
		c-1.2,0.8-4.2,1.2-8.8,1.2c-4.2,0-7.2-0.3-9-0.9C116.8,220,115.8,217.2,115.6,212.8z M115.9,244.9c0-3.4,0.9-6,2.8-7.9
		c1.4-0.8,4.4-1.2,9-1.2c4.2,0,7.3,0.4,9.1,1.2c1.9,1.9,2.8,4.5,2.8,7.9c0,4.2-0.9,6.9-2.8,7.9c-1.4,0.8-4.4,1.2-8.8,1.2
		c-4.2,0-7.3-0.3-9.3-0.9C116.8,252,115.9,249.3,115.9,244.9z M115.9,276.9c0-3.4,1-6,3.1-7.9c1.2-0.8,4.2-1.3,9-1.4
		c4.2,0.1,7.2,0.6,8.8,1.4c2.1,1.9,3.1,4.5,3.1,7.9c0,4.2-1,6.9-3.1,7.9c-1.2,0.8-4.2,1.2-8.8,1.2c-4.2,0-7.2-0.3-9-0.9
		C116.9,284.1,115.9,281.3,115.9,276.9z M115.9,309c0-3.4,1-6.1,3.1-8.1c1.2-0.8,4.2-1.2,9-1.2c4.2,0,7.2,0.4,8.8,1.2
		c2.1,1.9,3.1,4.5,3.1,8.1c0,4.2-1,6.9-3.1,7.9c-1.2,0.8-4.2,1.2-8.8,1.2c-4.2,0-7.2-0.3-9-0.9C116.9,316.1,115.9,313.4,115.9,309z
		 M115.9,340.9c0-3.4,1-6,3.1-7.9c1.2-0.8,4.2-1.2,9-1.2c4.2,0,7.2,0.4,8.8,1.2c2.1,1.9,3.1,4.5,3.1,7.9c0,4.2-0.9,6.9-2.8,8.1
		c-1.4,0.8-4.5,1.2-9.1,1.2c-4.2,0-7.2-0.3-9-0.9C117.1,348.2,116.1,345.4,115.9,340.9z M116.2,372.9c0-3.4,0.9-6,2.8-7.9
		c1.4-0.8,4.4-1.2,9-1.2c4.2,0,7.3,0.4,9.1,1.2c1.9,1.9,2.8,4.5,2.8,7.9c0,4.2-0.9,6.9-2.8,8.1c-1.4,0.8-4.4,1.2-8.8,1.2
		c-4.2,0-7.3-0.3-9.3-0.9C117.1,380.2,116.2,377.5,116.2,372.9z M150.4,138.6c0,0-0.1-0.4-0.2-1.3c-0.1-0.9,0.1-2.5,0.6-5
		c0.5-2.4,1.4-4.5,2.7-6.3c1.3-1.8,3.5-3.4,6.5-5c3-1.6,6.9-2.5,11.5-2.7l172.2-0.6h0.3c1,0,2.1,0.2,3.3,0.5c1.2,0.3,2.7,1,4.6,2.2
		c1.9,1.1,3.5,3.1,4.6,5.9c1.2,2.8,1.9,6.3,2.1,10.5l0.3,96.3c-0.2,0-0.2,0.5,0,1.5c0.2,1,0,2.2-0.5,3.8c-0.6,1.5-1.2,3.1-1.8,4.6
		c-0.6,1.5-1.9,2.8-3.9,3.9c-2,1.1-4.4,1.9-7,2.2l-179.9,0.3c-0.2,0-0.6-0.1-1.2-0.2c-0.6-0.1-1.7-0.4-3.3-1c-1.6-0.6-3-1.3-4.3-2.1
		c-1.2-0.8-2.4-2.1-3.5-3.9c-1.1-1.8-1.7-3.9-1.9-6.4l-1.2-96.2C150.4,138.9,150.4,138.6,150.4,138.6z M150.5,282.1
		c-0.1-1,0.1-2.6,0.6-5c0.5-2.3,1.4-4.4,2.7-6.2c1.3-1.8,3.5-3.5,6.7-5.2c3.1-1.6,6.9-2.6,11.4-2.8l172.2-0.3c0.2,0,0.4,0,0.6,0
		c0.8,0,1.8,0.2,3,0.5c1.2,0.3,2.7,1,4.6,2c1.9,1,3.5,3,4.6,5.9c1.2,2.9,1.9,6.4,2.1,10.5l0.3,96.5c-0.2,0-0.2,0.5,0,1.5
		c0.2,1,0,2.2-0.5,3.6c-0.6,1.4-1.2,2.9-1.8,4.4c-0.6,1.5-1.9,2.9-3.8,4.1c-1.9,1.2-4.3,2-7.2,2.2l-179.9,0.5
		c-0.2,0-0.6-0.1-1.2-0.2c-0.6-0.2-1.7-0.5-3.3-1c-1.6-0.5-3-1.2-4.3-2c-1.2-0.8-2.4-2.1-3.5-3.9c-1.1-1.8-1.6-4-1.6-6.6l-1.5-96
		C150.7,283.9,150.6,283.1,150.5,282.1z M156.7,139.6l1.2,96.2c0.4,4.6,3.1,7.1,8.2,7.3l179.3-0.3c2.6-0.2,4.3-1,5.3-2.3
		c1.4-1.6,2.1-3.9,2-6.7v-0.3v-0.3l-0.3-96c-0.3-8.7-3.1-13-8.4-13h-0.3l-171.9,0.3c-6.1,0.4-10.4,2.1-13,5
		c-2.1,2.8-2.8,5.9-2.2,9.3v0.3V139.6z M157.1,284.2l1.5,96c0.2,4.9,2.8,7.4,7.9,7.7l179.6-0.3c2.4-0.2,4-1.1,5-2.6
		c1.4-1.7,2.1-3.8,2-6.3v-0.3V378l-0.3-96.5c-0.3-8.4-3-12.5-8.1-12.5h-0.3h-0.3l-171.9,0.3c-6.1,0.4-10.3,2.1-12.7,5
		c-2.1,2.4-2.9,5.5-2.5,9.3v0.3V284.2z M371.1,148.1c0-3.4,1.1-6,3.3-7.9c1.2-0.8,4.2-1.2,8.8-1.2c4.3,0,7.3,0.4,9,1.2
		c2.1,1.9,3.1,4.5,3.1,7.9c0,4.2-1,6.9-3.1,7.9c-1.2,0.8-4.2,1.3-9,1.4c-4.2,0-7.2-0.3-8.8-0.9C372.2,155.4,371.2,152.6,371.1,148.1
		z M371.1,180.1c0-3.4,1.1-6,3.3-7.9c1.2-0.8,4.2-1.2,8.8-1.2c4.3,0,7.3,0.4,9,1.2c2.1,1.9,3.1,4.5,3.1,7.9c0,4.2-1,6.9-3.1,7.9
		c-1.2,0.8-4.2,1.3-9,1.4c-4.2,0-7.2-0.4-8.8-1.1C372.2,187.3,371.2,184.6,371.1,180.1z M371.4,212.2c-0.2-3.4,0.8-6,2.9-7.9
		c1.2-0.8,4.2-1.2,8.8-1.2c4.3,0,7.3,0.4,9,1.2c2.1,1.9,3.1,4.5,3.1,7.9c0,4.2-0.9,6.9-2.8,7.9c-1.4,0.8-4.5,1.2-9.3,1.2
		c-4,0-7-0.3-8.8-0.9C372.4,219.4,371.5,216.6,371.4,212.2z M371.4,244.2c0-3.4,1-6,2.9-7.9c1.4-0.8,4.5-1.3,9.1-1.4
		c4.1,0.1,7.1,0.6,9,1.4c1.9,1.9,2.8,4.5,2.8,7.9c0,4.2-0.9,6.9-2.8,7.9c-1.4,0.8-4.4,1.2-9,1.2c-4.2,0-7.2-0.3-8.8-0.9
		C372.5,251.4,371.5,248.7,371.4,244.2z M371.4,276.3c0-3.4,1.1-6.1,3.3-8.1c1.2-0.8,4.2-1.2,8.8-1.2c4.3,0,7.3,0.4,9,1.2
		c2.1,1.9,3.1,4.5,3.1,8.1c0,4.2-1,6.9-3.1,7.9c-1.2,0.8-4.2,1.2-9,1.2c-4.2,0-7.2-0.3-8.8-0.9C372.5,283.5,371.5,280.7,371.4,276.3
		z M371.4,308.3c0-3.4,1.1-6.1,3.3-8.1c1.2-0.8,4.2-1.2,8.8-1.2c4.3,0,7.3,0.4,9,1.2c2.1,1.9,3.1,4.5,3.1,8.1c0,4.2-1,6.9-3.1,7.9
		c-1.2,0.8-4.2,1.2-9,1.2c-4.2,0-7.2-0.3-8.8-0.9C372.5,315.5,371.5,312.8,371.4,308.3z M371.8,340.2c0-3.4,0.9-6,2.8-7.9
		c1.4-0.8,4.4-1.2,8.8-1.2c4.3,0,7.3,0.4,9,1.2c2.1,1.9,3.1,4.5,3.1,7.9c0,4.2-0.9,6.9-2.8,8.1c-1.4,0.8-4.5,1.2-9.3,1.2
		c-4,0-7-0.3-8.8-0.9C372.8,347.6,371.8,344.8,371.8,340.2z M371.8,372.3c0-3.4,0.9-6,2.8-7.9c1.4-0.8,4.5-1.2,9.1-1.2
		c4.1,0,7.1,0.4,9,1.2c1.9,1.9,2.8,4.5,2.8,7.9c0.2,4.2-0.7,6.9-2.8,7.9c-1.4,0.8-4.4,1.3-9,1.4c-4.2,0-7.2-0.4-8.8-1.1
		C372.9,379.5,371.8,376.7,371.8,372.3z"/>
</g>
<g class="st3">
	<path class="st4" d="M58.5,318.9L319.9,59.3L353.4,92c-5.8,7.8-8.7,16.6-8.7,26.4c0,12.3,4.5,22.9,13.4,31.7
		c8.9,8.8,19.5,13.2,31.9,13.2c10.3,0,19.4-3,27.3-9l3.5,3.7l32.7,32.7L192.1,452.7l-37.7-37.9c1.3-4.2,1.9-8.5,1.9-12.7
		c0-12.6-4.4-23.3-13.2-32c-8.8-8.8-19.5-13.2-32.2-13.2c-4.2,0-8.4,0.6-12.5,1.9L58.5,318.9z M69.9,318.9l30.8,31.2
		c3.5-0.8,6.9-1.2,10.2-1.2c14.8,0,27.3,5.2,37.7,15.6s15.6,22.9,15.6,37.5c0,3.5-0.4,6.9-1.2,10.4l29.1,29.1l250-251l-25.6-26.2
		c-8.1,4.5-16.9,6.7-26.6,6.7c-14.8,0-27.3-5.2-37.6-15.6c-10.3-10.4-15.5-22.8-15.5-37.1c0-9,2.1-17.4,6.4-25.2l-23.3-22.9
		L69.9,318.9z M263.1,116.8l131.7,132l5.6-5.6l-131.7-132L263.1,116.8z"/>
</g>
</svg>
