<?xml version="1.0" encoding="utf-8"?>
<!-- Generator: Adobe Illustrator 22.1.0, SVG Export Plug-In . SVG Version: 6.00 Build 0)  -->
<svg version="1.1" id="Foreground" xmlns="http://www.w3.org/2000/svg" xmlns:xlink="http://www.w3.org/1999/xlink" x="0px" y="0px"
	 viewBox="0 0 5889 2892.8" style="enable-background:new 0 0 5889 2892.8;" xml:space="preserve">
<style type="text/css">
	.st0{fill-rule:evenodd;clip-rule:evenodd;fill:#FFFFFF;}
	.st1{fill-rule:evenodd;clip-rule:evenodd;fill:#F7941D;}
	.st2{fill:#FFFFFF;}
</style>
<g>
	<g>
		<path class="st0" d="M1469.1,2473.8c0-154.6-86.5-222.6-238.5-222.6c-217.4,0-240.8,138.2-240.7,299.8
			c0,185.1,28.1,315.1,240.9,315.1c154.3,0,240.8-69.1,240.8-229.5l-164.8,0c0,77.3-24.5,124.1-76,124.1c-60.8,0-76-38.7-76-219.1
			c0-123,5.8-185.1,75.9-185c51.5,0,73.7,29.3,73.7,117.2L1469.1,2473.8z"/>
		<path class="st0" d="M1767.1,2263l-164.8,0l0.1,591.5l164.8,0L1767.1,2263z M1602.2,2008.8l0,130l164.8,0l0-130L1602.2,2008.8z"/>
		<path class="st0" d="M2078,2263.1l-164.8,0l0.2,591.5l164.8,0l-0.1-407.6c0-52.7,9.3-93.7,61.9-93.7c52.6,0,61.9,41,62,93.7
			l0.1,407.6l164.8,0l-0.1-474.4c0-82-69-128.8-147.3-128.9c-30.4,0-57.3,4.7-80.7,16.4c-22.2,10.5-42.1,28.1-58.4,55.1l-2.3,0
			L2078,2263.1z"/>
		<path class="st0" d="M2649.6,2492.7c0-50.4-1.2-139.4,74.8-139.4c78.3,0,76,82,76,139.4L2649.6,2492.7z M2965.3,2585.4
			c5.8-189.8-18.8-333.8-240.9-333.9c-217.4,0-240.8,138.2-240.7,299.8c0,185.1,28.1,315.1,240.9,315.1c77.1,0,135.6-21,174.2-57.4
			c39.7-36.3,60.8-89,63.1-153.4l-167.2,0c0,49.2-11.7,105.4-70.1,105.4c-72.5,0-74.8-105.4-74.8-175.7L2965.3,2585.4z"/>
		<path class="st0" d="M3234,2263.3l-164.8,0l0.1,591.5l164.8,0l-0.1-407.6c0-52.7,9.3-93.7,61.9-93.7c52.6,0,62,41,62,93.7
			l0.1,407.6l161.3,0l-0.1-407.6c0-52.7,9.3-93.7,61.9-93.7c52.6,0,62,41,62,93.7l0.1,407.6l164.8,0l-0.1-474.4
			c0-82-69-128.9-147.4-128.9c-67.8,0-114.5,23.4-153.1,74.9c-26.9-46.9-73.7-75-132.1-75c-62,0-106.4,18.7-139.1,71.5h-2.3
			L3234,2263.3z"/>
		<path class="st0" d="M4212.5,2569.2c0,64.4,15.2,195.6-81.8,195.6c-53.8,0-60.8-51.6-60.8-93.7
			C4069.9,2565.7,4130.6,2572.7,4212.5,2569.2z M4373.8,2449.8c0-107.8-26.9-198-236.2-198c-63.1,0-116.9,10.5-154.3,38.7
			c-38.5,26.9-60.8,72.6-60.8,144.1l161.3,0c0-46.9,4.7-90.2,62-90.2c59.6,0,66.6,36.3,66.6,86.7v45.7
			c-153.1-2.4-303.9,5.8-303.9,201.4c0,103.1,42.1,188.6,156.7,188.6c71.3,0,119.2-29.3,154.3-90.2h2.3l7,78.5l153.1,0
			c-3.5-36.3-8.2-73.8-8.2-110.1L4373.8,2449.8z"/>
		<path class="st0" d="M4479,2665.3c-9.3,165.2,86.6,201.5,230.3,201.5c136.8,0,220.9-77.2,220.9-180.3c0-189.8-290-185.1-290-278.8
			c0-39.8,19.9-63.3,56.1-63.3c17.5,0,31.6,2.4,42.1,12.9c11.7,10.6,16.3,35.1,16.4,76.1l161.3,0c9.3-127.7-92.4-181.6-204.6-181.6
			c-106.4,0-232.6,38.6-232.6,166.3c0,188.6,289.9,160.5,290,285.9c0,39.8-28,60.9-60.8,60.9c-32.7,0-50.3-9.4-59.6-28.1
			c-8.2-18.7-9.3-44.5-8.2-71.4L4479,2665.3z"/>
	</g>
	<g>
		<path class="st1" d="M1742.9,1290.5c0,0,86.3,90.3-17.3,202.5c-78.5,85.1-160.4,50.6-181.2,34c-20.7-16.6-503.8-420-526.2-441.5
			c-22.4-21.5-64.5-87.3,6.5-180.6c72.4-95.2,171.2-70.9,192-55.9C1237.5,864,1742.9,1290.5,1742.9,1290.5z"/>
	</g>
	<path class="st2" d="M2754,942.1c0,0-143.8-20.9-136.6-173.4c5.4-115.7,110-141.9,136.6-142.5c26.6-0.6,822.7-2.1,853.7,0
		c31,2.1,125.6,25.5,131.5,142.5c6.5,128.8-90.3,168.6-131.5,173.4C3582.3,945.1,2754,942.1,2754,942.1z M2198.8,709.2V261.5
		c0,0-12.4-188.3,173-194.8h566.9c2.7,0,4.3,0,7,0c26.6,0,640-2.1,671,0c31,2.1,128.9,36.1,129.9,153.3
		c1,119.3-104.4,153-129.9,154.9c-25.6,1.8-671,0-671,0s-2.3-0.3-6.2-1.1h-424.7v349.8c1.8,25.6,0,671.8,0,671.8
		s-20.9,139.2-173.4,132c-115.7-5.4-141.9-105.5-142.5-132c-0.6-26.6-2.1-640.8,0-671.8C2199.1,719.4,2197.6,714.6,2198.8,709.2z"/>
	<g>
		<path class="st2" d="M4195.1,351.7c0,0-81.7-95.8,21.9-208c78.5-85.1,160.4-50.6,181.2-34c20.7,16.6,1393,1161.7,1415.4,1183.3
			c22.4,21.5,89.2,108.5,18.5,202c-77.8,102.8-200.8,55-221.6,40C5589.7,1520,4195.1,351.7,4195.1,351.7z"/>
		<path class="st2" d="M4438.1,1575.7c0,0-103.8,71.2-204.6-43.5c-76.4-87-33.6-164.9-14.8-183.7c18.7-18.9,369.5-358.2,393.3-378.2
			c23.8-20,104.5-65.9,190,14.2c94.1,88.1,57.7,182.8,40.6,201.9C4825.4,1205.4,4438.1,1575.7,4438.1,1575.7z"/>
		<path class="st2" d="M5391.8,671.9c0,0-103.8,71.2-204.6-43.5c-76.4-87-33.6-164.9-14.8-183.7c18.7-18.9,369.5-358.2,393.3-378.2
			c23.8-20,104.5-65.9,190,14.2c94.1,88.1,57.7,182.8,40.6,201.9C5779.1,301.6,5391.8,671.9,5391.8,671.9z"/>
	</g>
	<path class="st1" d="M16.6,486.2v550.1c0,0,12.5,439.4,503.7,491.2c1.8,5.4,398.3,0,398.3,0s112.9-5.4,132.6-133.5
		c0,0,14.7-158.1-148.7-164.8c-21.1,0-350.1,0-350.1,0s-257.2-30.4-237.5-367.9c1.8,0,0-303.6,0-303.6S331,325.5,568.5,321.9
		c-1.8,0,671.6,0,671.6,0s217.9,3.6,212.5,259c0,3.6,0,228.6,0,228.6s12.5,116.1,153.6,116.1c1.8,0,136.6,4.5,144.7-112.5
		c1.8-1.8,0-348.3,0-348.3s0-432.2-605.5-446.5c-18.4,0-648.3,0-648.3,0S80.3,24.8,18.4,466.6C18.4,470.2,16.6,486.2,16.6,486.2z"/>
</g>
</svg>
